<?xml version="1.0" encoding="UTF-8" standalone="no"?>
<svg width="160px" height="38px" viewBox="0 0 160 38" version="1.1" xmlns="http://www.w3.org/2000/svg" xmlns:xlink="http://www.w3.org/1999/xlink" xmlns:sketch="http://www.bohemiancoding.com/sketch/ns">
    <!-- Generator: Sketch 3.3.3 (12072) - http://www.bohemiancoding.com/sketch -->
    <title>Group</title>
    <desc>Created with Sketch.</desc>
    <defs></defs>
    <g id="SHOP" stroke="none" stroke-width="1" fill="none" fill-rule="evenodd" sketch:type="MSPage">
        <g id="Shop-/-Desktop" sketch:type="MSArtboardGroup" transform="translate(-240.000000, -55.000000)" fill="#552F7C">
            <g id="HEADER" sketch:type="MSLayerGroup">
                <g id="Group" transform="translate(240.000000, 55.000000)" sketch:type="MSShapeGroup">
                    <path d="M18.8474654,0 L0,38 L25.4907952,38 L29.5034446,29.9109317 L14.1920194,29.9109317 L17.941447,22.3534497 L30.0917967,22.3534497 L33.9463813,14.5831559 L21.794934,14.5831559 L25.0161619,8.08862495 L37.9884483,8.08862495 L42,0 L18.8474654,0" id="Fill-1"></path>
                    <path d="M70.1978331,0 L61.1620755,20.4529953 L61.0409369,20.4529953 L56.1081475,0 L46.7660448,0 L29,38 L38.7457522,38 L47.8694118,16.4137814 L47.990769,16.4137814 L53.0436037,37.9968965 L62.0813293,38 L80,0 L70.1978331,0" id="Fill-2"></path>
                    <path d="M84.0090952,0 L66,38 L90.6218631,38 L94.6337391,29.9109317 L80.568243,29.9109317 L84.3164514,22.3534497 L96.0919246,22.3534497 L99.9450732,14.5831559 L88.1715758,14.5831559 L91.3913512,8.08862495 L103.989441,8.08862495 L108,0 L84.0090952,0" id="Fill-3"></path>
                    <path d="M112.532154,0 L94,38 L118.428504,38 L122.371635,29.9109317 L109.419179,29.9109317 L124,0 L112.532154,0" id="Fill-4"></path>
                    <path d="M139.531951,0 L121,38 L145.427529,38 L149.371081,29.9109317 L136.419371,29.9109317 L151,0 L139.531951,0" id="Fill-5"></path>
                    <path d="M157.522778,1.76016945 C157.948029,1.74938622 158.08217,1.60573822 158.130178,1.42473403 C158.175127,1.24931401 158.100996,1.15938959 157.742816,1.15938959 L157.204604,1.15938959 L157.047636,1.76016945 L157.522778,1.76016945 L157.522778,1.76016945 Z M156.953266,2.12814711 L156.688514,3.1438887 L156.239259,3.1438887 L156.850189,0.792374717 L157.779999,0.792374717 C158.306915,0.792374717 158.821829,0.908486978 158.685099,1.44110143 C158.614969,1.71203004 158.356806,1.92596158 157.957677,1.98912049 L157.954383,1.99932605 C158.333978,2.0636403 158.342215,2.20748086 158.32127,2.46261975 C158.302679,2.68598662 158.272321,2.93034227 158.314916,3.1438887 L157.740698,3.1438887 C157.744463,3.01063881 157.738109,2.86140663 157.753877,2.7233428 C157.774586,2.52077216 157.822359,2.33514658 157.720224,2.22346315 C157.635033,2.12814711 157.482771,2.13796755 157.329803,2.12814711 L156.953266,2.12814711 L156.953266,2.12814711 Z M159.516538,1.99431955 C159.750462,1.0902614 159.046103,0.350840033 157.933673,0.350840033 C156.816066,0.350840033 155.719639,1.0902614 155.485009,1.99431955 C155.24685,2.90954605 155.958975,3.64858229 157.077523,3.64858229 C158.189718,3.64858229 159.278144,2.90954605 159.516538,1.99431955 L159.516538,1.99431955 Z M155.055522,1.99431955 C155.341925,0.893082367 156.666628,0 158.025925,0 C159.37722,0 160.230781,0.893082367 159.944849,1.99431955 C159.656563,3.10595485 158.33892,4 156.986213,4 C155.628328,4 154.767472,3.10595485 155.055522,1.99431955 L155.055522,1.99431955 Z" id="Fill-6"></path>
                </g>
            </g>
        </g>
    </g>
</svg>