<?xml version="1.0" encoding="UTF-8" standalone="no"?>
<svg width="153px" height="35px" viewBox="0 0 153 35" version="1.1" xmlns="http://www.w3.org/2000/svg" xmlns:xlink="http://www.w3.org/1999/xlink" xmlns:sketch="http://www.bohemiancoding.com/sketch/ns">
    <!-- Generator: Sketch 3.3.3 (12072) - http://www.bohemiancoding.com/sketch -->
    <title>Imported Layers</title>
    <desc>Created with Sketch.</desc>
    <defs></defs>
    <g id="SHOP-ITEM-DETAIL" stroke="none" stroke-width="1" fill="none" fill-rule="evenodd" sketch:type="MSPage">
        <g id="Shop-Detail-/-Desktop" sketch:type="MSArtboardGroup" transform="translate(-643.000000, -2027.000000)" fill="#EBEBEB">
            <g id="FOOTER" sketch:type="MSLayerGroup" transform="translate(-1.000000, 1586.000000)">
                <g id="Imported-Layers" transform="translate(644.000000, 441.000000)" sketch:type="MSShapeGroup">
                    <g id="Group">
                        <path d="M17.6139926,0 L0,35 L23.8225495,35 L27.5725909,27.5495423 L13.2632223,27.5495423 L16.7672686,20.5887037 L28.1224383,20.5887037 L31.7247595,13.4318541 L20.368564,13.4318541 L23.3789785,7.45004929 L35.5022933,7.45004929 L39.2513089,0 L17.6139926,0" id="Fill-1"></path>
                        <path d="M66.8618322,0 L58.3464586,18.8382851 L58.2322966,18.8382851 L53.5835945,0 L44.7795187,0 L28.0366492,35 L37.2211277,35 L45.819341,15.1179566 L45.933709,15.1179566 L50.6955428,34.9971415 L59.2127711,35 L76.0994764,0 L66.8618322,0" id="Fill-2"></path>
                        <path d="M79.3121649,0 L62.4816754,35 L85.49216,35 L89.2414787,27.5495423 L76.0964993,27.5495423 L79.5994061,20.5887037 L90.6042332,20.5887037 L94.2052123,13.4318541 L83.2022319,13.4318541 L86.2112889,7.45004929 L97.9848966,7.45004929 L101.732984,0 L79.3121649,0" id="Fill-3"></path>
                        <path d="M107.531432,0 L89.7172775,35 L113.199336,35 L116.989697,27.5495423 L104.539064,27.5495423 L118.554974,0 L107.531432,0" id="Fill-4"></path>
                        <path d="M133.965792,0 L116.151832,35 L139.632955,35 L143.42372,27.5495423 L130.973803,27.5495423 L144.989529,0 L133.965792,0" id="Fill-5"></path>
                        <path d="M150.618754,2.10020219 C151.027529,2.08733583 151.156473,1.91593765 151.202621,1.69996674 C151.245829,1.49065877 151.17457,1.38336258 150.830267,1.38336258 L150.312908,1.38336258 L150.16202,2.10020219 L150.618754,2.10020219 L150.618754,2.10020219 Z M150.071307,2.53926644 L149.816812,3.75123084 L149.384963,3.75123084 L149.972224,0.945447106 L150.86601,0.945447106 C151.372511,0.945447106 151.867475,1.08399014 151.736043,1.71949602 C151.66863,2.04276311 151.420469,2.29802235 151.036804,2.37338241 L151.033637,2.38555949 C151.398526,2.46229809 151.406443,2.63392603 151.38631,2.93835311 C151.368439,3.2048704 151.339257,3.49643112 151.380202,3.75123084 L150.828231,3.75123084 C150.831851,3.59223949 150.825743,3.41417837 150.840899,3.24944311 C150.860807,3.0077395 150.906729,2.78625445 150.80855,2.6529958 C150.72666,2.53926644 150.580297,2.55098401 150.433255,2.53926644 L150.071307,2.53926644 L150.071307,2.53926644 Z M152.535269,2.37958583 C152.76013,1.30088008 152.08306,0.418615948 151.01373,0.418615948 C149.939422,0.418615948 148.885475,1.30088008 148.659936,2.37958583 C148.431003,3.47161744 149.115538,4.35342206 150.19075,4.35342206 C151.259854,4.35342206 152.306111,3.47161744 152.535269,2.37958583 L152.535269,2.37958583 Z M148.247088,2.37958583 C148.522395,1.06560964 149.795774,0 151.102407,0 C152.401348,0 153.22184,1.06560964 152.946985,2.37958583 C152.669869,3.70596885 151.403276,4.77272727 150.102978,4.77272727 C148.797702,4.77272727 147.970198,3.70596885 148.247088,2.37958583 L148.247088,2.37958583 Z" id="Fill-6"></path>
                    </g>
                </g>
            </g>
        </g>
    </g>
</svg>